<?xml version="1.0" standalone="no"?>
<!DOCTYPE svg PUBLIC "-//W3C//DTD SVG 20010904//EN"
 "http://www.w3.org/TR/2001/REC-SVG-20010904/DTD/svg10.dtd">
<svg version="1.0" xmlns="http://www.w3.org/2000/svg"
 width="320.000000pt" height="320.000000pt" viewBox="0 0 320.000000 320.000000"
 preserveAspectRatio="xMidYMid meet">
<metadata>
Created by potrace 1.11, written by Peter Selinger 2001-2013
</metadata>
<g transform="translate(0.000000,320.000000) scale(0.100000,-0.100000)"
fill="#000000" stroke="none">
<path d="M1970 1940 l0 -140 175 0 175 0 0 140 0 140 -175 0 -175 0 0 -140z"/>
<path d="M2660 1940 l0 -140 175 0 175 0 0 140 0 140 -175 0 -175 0 0 -140z"/>
<path d="M1023 1665 c-81 -15 -163 -49 -210 -89 -73 -62 -109 -203 -84 -327
31 -147 130 -216 366 -254 50 -8 121 -20 160 -26 53 -9 75 -18 97 -40 48 -47
33 -109 -35 -147 -26 -14 -56 -17 -162 -16 -142 1 -216 14 -341 63 l-75 29 3
-131 3 -132 70 -18 c197 -49 481 -59 619 -21 125 33 209 96 250 183 16 37 21
66 21 146 0 91 -3 105 -30 160 -55 111 -152 156 -416 195 -162 24 -209 42
-223 83 -46 132 202 168 492 71 57 -19 106 -34 108 -34 2 0 4 58 4 129 0 115
-2 130 -17 135 -168 49 -449 69 -600 41z"/>
<path d="M1968 1063 c-3 -650 -2 -633 -60 -676 -18 -13 -48 -21 -97 -25 l-71
-5 0 -114 0 -115 143 4 c118 4 152 9 201 28 73 28 149 96 183 163 50 100 53
137 53 760 l0 577 -175 0 -174 0 -3 -597z"/>
<path d="M2658 1063 c-3 -650 -2 -633 -60 -676 -18 -13 -48 -21 -97 -25 l-71
-5 0 -114 0 -115 143 4 c118 4 152 9 201 28 73 28 149 96 183 163 50 100 53
137 53 760 l0 577 -175 0 -174 0 -3 -597z"/>
</g>
</svg>
